<svg width="219" height="202" viewBox="0 0 219 202" fill="none" xmlns="http://www.w3.org/2000/svg">
<g clip-path="url(#clip0_295_10024)">
<path d="M82.6719 201.96V78.63C82.6719 24.65 132.002 0.02 176.382 0.02L218.932 0C218.932 21.85 202.872 49.01 174.602 49.01C173.502 49.01 166.702 49.04 165.642 49.04C143.372 49.04 125.222 64.46 125.222 96.4V154.57C125.222 188.37 106.912 202.5 82.6719 201.96Z" fill="url(#paint0_linear_295_10024)"/>
<path opacity="0.32" d="M106.752 23.9801C92.2519 36.7701 82.6719 54.8501 82.6719 78.6301V201.96C99.9019 201.96 104.212 189.57 104.212 178.26V96.4001C104.212 59.5101 122.252 49.0401 165.632 49.0401L159.142 22.0801L106.742 23.9801H106.752Z" fill="url(#paint1_linear_295_10024)"/>
<path d="M65.17 49.01C65.17 21.81 85.9 0 106.64 0H0C0 22.08 16.7 49.01 47.12 49.01H65.16H65.17Z" fill="#121212"/>
<path d="M78.5 49.01C80.5 22.5 113.76 0 134.5 0H0C0 22.08 16.7 49.01 47.12 49.01H65.16H78.5Z" fill="url(#paint2_linear_295_10024)"/>
<path d="M218.932 0L176.382 0.02C132.002 0.02 82.6719 24.65 82.6719 78.63V100.36C82.6719 52.75 134.512 49.05 165.632 49.05C166.692 49.05 173.502 49.09 174.592 49.02C208.822 46.6 218.922 21.86 218.922 0.01L218.932 0Z" fill="url(#paint3_linear_295_10024)"/>
<path opacity="0.42" d="M82.6719 78.63V100.36C82.6719 -17.54 218.932 59.94 218.932 0L176.382 0.02C132.002 0.02 82.6719 24.65 82.6719 78.63Z" fill="url(#paint4_linear_295_10024)"/>
<path d="M67.59 0H0C0 13.47 6.23 28.74 17.98 38.6C-3.31 12.33 45.51 0 67.59 0Z" fill="#121212"/>
</g>
<defs>
<linearGradient id="paint0_linear_295_10024" x1="149.462" y1="42.54" x2="151.882" y2="148.37" gradientUnits="userSpaceOnUse">
<stop stop-color="#332667"/>
<stop offset="1" stop-color="#6E55CF"/>
</linearGradient>
<linearGradient id="paint1_linear_295_10024" x1="82.6719" y1="112.02" x2="165.632" y2="112.02" gradientUnits="userSpaceOnUse">
<stop stop-color="#2B2151"/>
<stop offset="1" stop-color="#6E55CF"/>
</linearGradient>
<linearGradient id="paint2_linear_295_10024" x1="33.47" y1="-3.80997" x2="89.21" y2="40.89" gradientUnits="userSpaceOnUse">
<stop stop-color="#222222"/>
<stop offset="0.79" stop-color="#121212"/>
</linearGradient>
<linearGradient id="paint3_linear_295_10024" x1="82.6719" y1="50.18" x2="218.932" y2="50.18" gradientUnits="userSpaceOnUse">
<stop stop-color="#6E55CF"/>
<stop offset="1" stop-color="#6E55CE"/>
</linearGradient>
<linearGradient id="paint4_linear_295_10024" x1="232.502" y1="49.79" x2="93.5519" y2="50.33" gradientUnits="userSpaceOnUse">
<stop stop-color="#6E55CF"/>
<stop offset="1" stop-color="#5E3AB1"/>
</linearGradient>
<clipPath id="clip0_295_10024">
<rect width="219" height="202" fill="white"/>
</clipPath>
</defs>
</svg>
